<svg xmlns="http://www.w3.org/2000/svg" viewBox="0 0 320 230" role="img" aria-labelledby="title desc">
  <title id="title">AccessLens red bird</title>
  <desc id="desc">A friendly geometric red bird looking forward</desc>
  <path d="M42 166c35-63 80-96 137-99 2-25 20-47 54-57-8 34-4 60 13 76-16 14-36 20-58 17 24 28 34 60 27 96-33-16-66-21-99-14-29 7-54 1-74-19Z" fill="#d8384c"/>
  <path d="M89 168c32-41 70-63 113-64-28 34-44 70-46 108-21-24-43-39-67-44Z" fill="#8f1d2c"/>
  <path d="M180 75c12-31 31-51 58-61-8 23-4 43 12 60-25-7-48-7-70 1Z" fill="#ee5b6d"/>
  <circle cx="225" cy="52" r="8" fill="#2c1115"/>
  <circle cx="228" cy="49" r="2.5" fill="#fff"/>
  <path d="m249 65 53 16-49 23c3-12 2-25-4-39Z" fill="#e7a23d"/>
  <path d="M52 165C35 187 19 199 4 202c19 6 38 5 57-4" fill="none" stroke="#8f1d2c" stroke-linecap="round" stroke-width="10"/>
  <path d="M178 195c-1 15-6 25-14 31M196 192c4 14 2 25-6 33" fill="none" stroke="#633138" stroke-linecap="round" stroke-width="7"/>
</svg>
